<svg width="123" height="42" viewBox="0 0 123 42" fill="none" xmlns="http://www.w3.org/2000/svg">
<path fill-rule="evenodd" clip-rule="evenodd" d="M11.147 31.1771L11.102 31.0871H3.033V12.6291C3.033 12.1971 2.886 11.8321 2.592 11.5371C2.45026 11.3926 2.28039 11.2788 2.09291 11.2026C1.90543 11.1264 1.70432 11.0895 1.502 11.0941C1.09 11.0941 0.736 11.2421 0.442 11.5371C0.147 11.8321 0 12.1971 0 12.6291V32.6211C0 33.0541 0.143 33.4181 0.427 33.7131C0.712 34.0091 1.07 34.1561 1.502 34.1561H13.559C12.5613 33.3363 11.7403 32.3225 11.146 31.1761L11.147 31.1771ZM22.689 30.8951C23.4805 30.417 24.1269 29.7326 24.559 28.9151C25.01 28.0791 25.237 27.1391 25.237 26.0951C25.237 25.0531 25.01 24.1081 24.559 23.2611C24.1294 22.4384 23.4827 21.7491 22.689 21.2681C21.894 20.7861 21.005 20.5441 20.024 20.5441C19.042 20.5441 18.154 20.7861 17.359 21.2681C16.5633 21.7513 15.9122 22.4397 15.474 23.2611C15.013 24.1081 14.782 25.0531 14.782 26.0961C14.782 27.1391 15.012 28.0791 15.474 28.9161C15.915 29.7315 16.5657 30.4144 17.359 30.8941C18.154 31.3771 19.042 31.6181 20.024 31.6181C21.005 31.6181 21.894 31.3781 22.689 30.8951ZM24.132 18.9651C25.3482 19.6733 26.3542 20.6921 27.047 21.9171C27.764 23.1671 28.122 24.5601 28.122 26.0961V32.6811C28.122 33.1141 27.979 33.4731 27.695 33.7591C27.41 34.0441 27.052 34.1871 26.62 34.1871C26.188 34.1871 25.83 34.0441 25.545 33.7591C25.26 33.4731 25.118 33.1141 25.118 32.6811V31.5881C24.4337 32.4344 23.5674 33.1155 22.5834 33.5807C21.5995 34.0459 20.5233 34.2833 19.435 34.2751C18.022 34.2751 16.741 33.9211 15.592 33.2121C14.444 32.5031 13.541 31.5241 12.883 30.2741C12.225 29.0241 11.897 27.6321 11.897 26.0961C11.897 24.5601 12.25 23.1681 12.957 21.9171C13.6467 20.6844 14.6598 19.6634 15.887 18.9641C17.133 18.2461 18.512 17.8871 20.024 17.8871C21.535 17.8871 22.904 18.2471 24.132 18.9651ZM40.848 30.8951C41.6438 30.4115 42.2948 29.7227 42.733 28.9011C43.193 28.0551 43.425 27.1111 43.425 26.0661C43.425 25.0231 43.193 24.0831 42.733 23.2461C42.2913 22.4312 41.6407 21.7485 40.848 21.2681C40.053 20.7861 39.164 20.5441 38.184 20.5441C37.201 20.5441 36.313 20.7861 35.518 21.2681C34.7273 21.7462 34.081 22.4298 33.648 23.2461C33.196 24.0831 32.971 25.0231 32.971 26.0661C32.971 27.1101 33.196 28.0561 33.648 28.9011C34.0776 29.7237 34.7243 30.413 35.518 30.8941C36.313 31.3771 37.201 31.6181 38.184 31.6181C39.164 31.6181 40.053 31.3781 40.848 30.8951ZM42.614 18.9501C43.763 19.6581 44.666 20.6381 45.324 21.8881C45.982 23.1381 46.311 24.5311 46.311 26.0661C46.311 27.6021 45.958 28.9951 45.251 30.2441C44.5618 31.4774 43.5486 32.4988 42.321 33.1981C41.073 33.9171 39.694 34.2751 38.184 34.2751C36.671 34.2751 35.302 33.9171 34.075 33.1981C32.8581 32.4899 31.8519 31.4703 31.16 30.2441C30.443 28.9951 30.085 27.6021 30.085 26.0661V12.6011C30.085 12.1481 30.227 11.7841 30.512 11.5091C30.796 11.2331 31.155 11.0951 31.587 11.0951C32.038 11.0951 32.401 11.2331 32.677 11.5091C32.951 11.7841 33.089 12.1491 33.089 12.6011V20.5741C33.7733 19.7274 34.6397 19.0461 35.6239 18.5809C36.608 18.1157 37.6845 17.8785 38.773 17.8871C40.185 17.8871 41.466 18.2411 42.614 18.9501ZM50.777 33.3161C49.421 32.5581 48.411 31.5201 47.743 30.2001C47.6861 30.0907 47.656 29.9694 47.655 29.8461C47.6525 29.7356 47.6735 29.6259 47.7166 29.5242C47.7597 29.4225 47.8239 29.3311 47.905 29.2561C48.071 29.0981 48.292 29.0191 48.568 29.0191C48.96 29.0191 49.245 29.2061 49.421 29.5801C49.952 30.5651 50.741 31.3271 51.792 31.8691C52.842 32.4101 54.104 32.6811 55.576 32.6811C57.264 32.6811 58.595 32.2581 59.566 31.4111C60.538 30.5651 61.024 29.3641 61.024 27.8081C61.024 26.4701 60.548 25.3621 59.595 24.4861C58.643 23.6101 57.235 23.0441 55.37 22.7891C53.19 22.4741 51.478 21.7601 50.232 20.6481C48.984 19.5361 48.361 18.1821 48.361 16.5881C48.361 15.4461 48.651 14.4371 49.231 13.5611C49.808 12.6851 50.623 12.0051 51.674 11.5231C52.724 11.0411 53.936 10.8001 55.31 10.8001C56.743 10.8001 58.06 11.1441 59.257 11.8331C60.454 12.5231 61.338 13.3491 61.907 14.3131C61.9872 14.4576 62.0275 14.6208 62.024 14.7861C62.024 14.9441 61.98 15.0861 61.892 15.2141C61.7978 15.3471 61.6711 15.4539 61.524 15.5241C61.4123 15.5702 61.2917 15.5907 61.171 15.5841C61.0068 15.5891 60.8443 15.5508 60.6996 15.473C60.555 15.3953 60.4333 15.2808 60.347 15.1411C59.187 13.4281 57.509 12.5711 55.31 12.5711C53.681 12.5711 52.41 12.9411 51.497 13.6791C50.585 14.4171 50.128 15.4461 50.128 16.7651C50.128 17.8671 50.579 18.7921 51.483 19.5401C52.385 20.2891 53.78 20.8201 55.664 21.1351C58.138 21.5481 59.944 22.3121 61.083 23.4241C62.22 24.5361 62.791 25.9971 62.791 27.8081C62.791 29.1681 62.491 30.3481 61.892 31.3521C61.294 32.3561 60.449 33.1241 59.36 33.6561C58.27 34.1861 57.01 34.4531 55.576 34.4531C53.731 34.4531 52.13 34.0731 50.776 33.3161H50.777ZM76.287 31.8251C77.2587 31.2636 78.0577 30.4463 78.597 29.4621C79.157 28.4581 79.436 27.3361 79.436 26.0961C79.436 24.8561 79.156 23.7341 78.597 22.7301C78.0556 21.7436 77.2574 20.9219 76.287 20.3521C75.304 19.7721 74.204 19.4821 72.987 19.4821C71.769 19.4821 70.671 19.7721 69.69 20.3521C68.7169 20.9237 67.914 21.7446 67.364 22.7301C66.794 23.7341 66.509 24.8551 66.509 26.0961C66.509 27.3361 66.793 28.4581 67.364 29.4621C67.9118 30.4453 68.7156 31.2618 69.69 31.8251C70.67 32.3961 71.77 32.6811 72.988 32.6811C74.204 32.6811 75.305 32.3961 76.287 31.8251ZM77.169 18.9051C78.4078 19.6061 79.4313 20.6324 80.129 21.8731C80.845 23.1331 81.204 24.5411 81.204 26.0961V33.2721C81.2119 33.5062 81.1271 33.734 80.968 33.9061C80.811 34.0731 80.594 34.1571 80.32 34.1571C80.2028 34.1608 80.0861 34.1405 79.9771 34.0973C79.8681 34.0542 79.7691 33.9891 79.6862 33.9062C79.6033 33.8232 79.5384 33.7241 79.4953 33.6151C79.4523 33.506 79.4321 33.3892 79.436 33.2721V30.9681C78.788 32.0121 77.9 32.8341 76.771 33.4341C75.642 34.0341 74.381 34.3341 72.988 34.3341C71.436 34.3341 70.032 33.9761 68.777 33.2571C67.5381 32.5562 66.5145 31.5298 65.817 30.2891C65.1 29.0291 64.742 27.6321 64.742 26.0961C64.742 24.5411 65.1 23.1331 65.817 21.8731C66.5147 20.6324 67.5383 19.6061 68.777 18.9051C70.032 18.1871 71.436 17.8281 72.987 17.8281C74.519 17.8281 75.912 18.1881 77.169 18.9051ZM93.151 21.3631L88.523 31.5881L82.486 18.4781C82.328 18.1431 82.083 17.9751 81.75 17.9751C81.6266 17.9764 81.5053 18.0069 81.396 18.0641C81.061 18.2221 80.896 18.4771 80.896 18.8321C80.896 18.9701 80.915 19.0781 80.954 19.1561L87.668 33.5661C87.746 33.7641 87.859 33.9161 88.008 34.0251C88.1474 34.1303 88.3173 34.1872 88.492 34.1871C88.925 34.1871 89.238 33.9801 89.435 33.5671L94.1 23.4001L93.151 21.3631ZM106.457 21.4251L101.857 31.5881L95.821 18.4781C95.662 18.1431 95.418 17.9751 95.084 17.9751C94.9606 17.9764 94.8393 18.0069 94.73 18.0641C94.397 18.2221 94.23 18.4771 94.23 18.8321C94.23 18.9701 94.25 19.0781 94.29 19.1561L101.003 33.5661C101.081 33.7641 101.194 33.9161 101.342 34.0251C101.488 34.1331 101.652 34.1871 101.828 34.1871C102.259 34.1871 102.573 33.9801 102.769 33.5671L107.395 23.4851L106.457 21.4251ZM122.774 18.7141C122.774 18.7921 122.735 18.9301 122.657 19.1271L112.763 40.6241C112.586 40.9791 112.36 41.1561 112.085 41.1561C111.967 41.1561 111.829 41.1261 111.672 41.0671C111.3 40.9091 111.113 40.6831 111.113 40.3881C111.113 40.3091 111.153 40.1711 111.231 39.9751L114.176 33.5961C114.13 33.5316 114.09 33.4625 114.058 33.3901L107.61 19.2151C107.534 19.0693 107.493 18.9076 107.491 18.7431C107.491 18.4481 107.658 18.2221 107.991 18.0631C108.148 17.9851 108.306 17.9461 108.463 17.9461C108.758 17.9461 108.983 18.1131 109.141 18.4481L115.118 31.5581L121.125 18.4781C121.302 18.1231 121.528 17.9461 121.802 17.9461C121.94 17.9461 122.077 17.9761 122.214 18.0341C122.588 18.1921 122.774 18.4181 122.774 18.7141Z" fill="#594A9B"/>
<path fill-rule="evenodd" clip-rule="evenodd" d="M13.441 9.22307C13.4455 9.76412 13.5564 10.299 13.7676 10.7972C13.9788 11.2953 14.286 11.747 14.6717 12.1264C15.0575 12.5059 15.5142 12.8056 16.0158 13.0085C16.5173 13.2114 17.054 13.3136 17.595 13.3091C18.1361 13.3031 18.6707 13.1905 19.1682 12.9779C19.6658 12.7653 20.1166 12.4568 20.4949 12.0699C20.8732 11.683 21.1716 11.2255 21.3731 10.7233C21.5745 10.2211 21.6751 9.68413 21.669 9.14307C21.6598 8.05054 21.217 7.00642 20.438 6.24035C19.6589 5.47429 18.6076 5.04902 17.515 5.05807C16.4225 5.0702 15.3795 5.51582 14.6155 6.29689C13.8515 7.07796 13.429 8.13053 13.441 9.22307V9.22307ZM10.781 2.08207C10.7855 2.62825 11.0067 3.15028 11.396 3.5334C11.7853 3.91651 12.3108 4.12933 12.857 4.12507C13.1276 4.12207 13.3948 4.0658 13.6436 3.9595C13.8924 3.85319 14.1178 3.69891 14.307 3.50548C14.4961 3.31206 14.6453 3.08326 14.7461 2.83217C14.8468 2.58107 14.8971 2.3126 14.894 2.04207C14.8893 1.49589 14.6678 0.973961 14.2783 0.591036C13.8888 0.208111 13.3632 -0.00445726 12.817 7.08886e-05C12.2708 0.0061379 11.7494 0.228875 11.3674 0.619304C10.9855 1.00973 10.7742 1.53589 10.78 2.08207H10.781ZM7.27003 15.8791C7.27689 16.6984 7.60891 17.4815 8.19307 18.0561C8.77722 18.6307 9.56567 18.9497 10.385 18.9431C10.7908 18.9386 11.1918 18.8543 11.565 18.6949C11.9382 18.5355 12.2763 18.3041 12.5601 18.014C12.8439 17.7239 13.0677 17.3808 13.2189 17.0042C13.37 16.6276 13.4455 16.2249 13.441 15.8191C13.4376 15.4133 13.3543 15.0121 13.1959 14.6385C13.0375 14.2649 12.807 13.9262 12.5176 13.6417C12.2283 13.3572 11.8857 13.1324 11.5095 12.9803C11.1333 12.8282 10.7308 12.7516 10.325 12.7551C9.50567 12.7643 8.72352 13.0986 8.15062 13.6844C7.57771 14.2703 7.26096 15.0597 7.27003 15.8791" fill="#4FDBFC"/>
</svg>
